<svg width="150" height="150" viewBox="0 0 150 150" fill="none" xmlns="http://www.w3.org/2000/svg">
<g clip-path="url(#clip0_8_1559)">
<path d="M75 0C36.975 0 5.58047 28.3055 0.684375 64.9898C0.679688 65.0273 0.675 65.0625 0.670313 65.1C0.539062 66.0867 0.421875 67.0758 0.328125 68.0742C0.283594 68.5359 0.260156 69.0023 0.222656 69.4664C0.173437 70.1227 0.119531 70.7789 0.0867188 71.4398C0.0328125 72.6164 0 73.8047 0 75C0 116.421 33.5789 150 75 150C116.421 150 150 116.421 150 75C150 33.5789 116.421 0 75 0ZM78.1922 137.114C76.5047 138.959 73.7367 140.428 71.9227 138.684C70.3922 137.175 71.6906 135.309 71.9227 133.17C72.2156 130.673 71.0742 127.673 73.4836 126.898C75.4453 126.291 76.9242 127.652 78.1922 129.27C80.1258 131.66 80.2477 134.827 78.1922 137.114ZM101.827 116.883C99.0609 118.308 97.125 118.041 94.0383 118.46C88.2867 119.184 83.7398 122.023 79.1953 118.46C77.1633 116.831 76.9031 115.059 75.3281 112.973C72.7875 109.777 72.1523 103.882 68.2734 105.188C65.7937 106.022 65.8688 108.504 64.3969 110.66C62.4984 113.37 62.9742 117.206 59.6977 117.675C57.4148 117.998 56.1844 116.602 54.2578 115.331C52.0969 113.892 51.6703 112.172 49.5656 110.66C47.3766 109.045 45.6047 109.036 43.3453 107.534C41.7188 106.448 41.3719 104.477 39.4242 104.407C37.6641 104.355 36.4031 105.218 35.5242 106.741C33.8812 109.587 33.3164 117.975 28.5211 117.675C24.968 117.434 17.3695 109.451 14.4727 107.534C13.5234 106.894 12.6445 106.242 11.7586 105.745C7.47188 96.9422 4.98281 87.1078 4.73438 76.718C6.17344 75.5109 7.63828 74.9156 8.99766 73.2188C11.1703 70.5703 10.125 67.343 12.9187 65.4023C14.9953 63.9867 16.6734 64.2141 19.1742 63.8602C22.7578 63.3398 25.0125 62.8711 28.5211 63.8602C31.9406 64.8187 33.2461 66.7805 36.3164 68.5289C39.6328 70.4273 41.1258 72.668 44.8945 73.2188C47.6273 73.6055 49.5023 71.107 51.8977 72.4289C53.8289 73.5023 55.193 74.9273 55.0406 77.1188C54.8062 79.9734 49.1297 78.1594 48.8086 81.0141C48.3797 84.6656 54.6961 80.5594 58.1648 81.7875C60.4477 82.6195 63.4172 82.4766 63.6141 84.9141C63.8039 87.6234 59.8453 86.8758 57.3867 88.043C54.6633 89.3109 53.2359 90.3773 50.3461 91.1578C47.7094 91.8563 44.9273 89.6859 43.3453 91.9289C42.1031 93.668 42.5414 95.4187 43.3453 97.4016C45.1898 101.927 51.1945 100.57 55.8187 98.9414C59.0602 97.7977 59.6648 94.8961 62.843 93.4828C66.2133 91.9805 68.8289 90.3539 72.1734 91.9289C74.9344 93.232 74.1633 96.7336 76.875 98.1703C79.8117 99.7359 82.575 96.4617 85.4602 98.1703C87.7031 99.5039 87.5391 101.735 89.3391 103.624C91.4344 105.832 92.6437 107.613 95.5922 108.312C98.6062 109.013 100.448 105.802 103.39 106.739C105.652 107.477 107.503 108.333 108.047 110.658C108.902 113.986 104.869 115.308 101.827 116.883ZM107.435 79.3148C104.73 82.0336 102.382 82.9219 98.5969 83.7516C95.2383 84.4898 90.5273 87.1219 89.7563 83.7516C89.168 81.0609 92.168 80.1 94.193 78.2227C96.4406 76.125 98.5383 75.9187 100.816 73.7883C102.855 71.9086 102.588 69.0281 105.253 68.2594C107.852 67.5094 110.367 68.2148 111.874 70.4789C114.028 73.6828 110.17 76.5961 107.435 79.3148ZM140.599 68.7164C139.446 69.907 139.516 71.1633 138.337 72.3305C137.032 73.5938 135.218 73.05 134.264 74.5992C133.425 75.9516 133.959 77.0766 133.809 78.6656C133.713 79.5727 129.3 81.6094 128.388 79.568C127.887 78.4406 129.047 77.4422 128.388 76.3969C127.772 75.457 127.088 75.9398 126.281 76.8211C125.44 77.7305 124.472 79.0664 123.42 79.568C122.039 80.2078 122.96 74.2945 122.494 72.3305C122.152 70.7766 122.517 69.7992 122.958 68.2617C123.544 66.1289 125.156 65.4352 125.665 63.2812C126.12 61.3922 125.742 60.2461 125.665 58.3055C125.573 56.182 125.63 54.9609 125.224 52.882C124.774 50.6859 124.634 49.3078 123.417 47.4539C122.438 45.9914 121.791 45.1078 120.244 44.2852C119.869 44.0789 119.517 43.943 119.184 43.8375C118.388 43.5727 117.64 43.5375 116.611 43.3852C114.53 43.0758 113.044 44.3977 111.188 43.3852C110.105 42.7875 109.767 42.0375 108.938 41.1188C107.991 40.1016 107.74 39.2695 106.671 38.4047C105.872 37.7578 105.377 37.3805 104.409 37.043C102.558 36.4266 101.264 36.8508 99.4266 37.5023C97.6219 38.1305 96.9469 39.1594 95.3508 40.2094C94.1273 40.9195 93.2578 41.0789 92.1914 42.0234C91.5445 42.5906 88.4648 44.782 87.2063 44.7305C85.9313 44.6812 85.2117 43.9266 84.0703 43.8352C83.918 43.8164 83.7656 43.8164 83.5922 43.8352C83.5922 43.8352 83.5922 43.8352 83.5805 43.8352C82.4719 43.9195 81.9492 44.4656 80.8945 44.7305C78.3 45.3773 76.6477 44.4609 74.0859 45.1922C72.4172 45.6609 71.7586 46.9875 70.0312 46.9992C68.0602 47.0109 67.3945 45.2578 65.5031 44.7305C64.4672 44.4539 63.8578 44.4281 62.7914 44.2852C61.0359 44.032 60.0305 44.0063 58.2773 43.8375H58.2656C58.2281 43.8516 56.8805 43.9734 56.6531 43.8375C55.6641 43.1672 54.9609 42.6164 53.7375 42.0258C52.3898 41.3625 51.5836 41.0227 50.1117 40.657L50.1727 39.7641C50.1727 39.7641 50.1727 37.7789 49.8891 36.9352C49.6195 36.0891 49.3266 36.0891 49.8891 34.3898C50.4703 32.6977 51.4805 31.6195 51.4805 31.6195C52.1766 31.0852 52.6898 30.9047 53.2828 30.2602C54.4781 28.9969 54.9633 27.9211 55.0969 26.1844C55.2539 23.9062 52.2727 22.9805 52.8234 20.7563C53.3133 18.8203 54.9422 18.4594 56.4492 17.1398C58.275 15.5695 59.8898 15.3633 61.418 13.5258C62.5922 12.1359 63.5531 11.2641 63.6914 9.45234C63.8156 7.9125 63.1523 6.94922 62.3555 5.84766C66.4594 5.09766 70.6805 4.6875 75 4.6875C109.966 4.6875 138.961 30.218 144.387 63.6516C143.911 64.4766 144.384 65.5172 143.754 66.4477C142.92 67.7203 141.647 67.6172 140.599 68.7164Z" fill="#FB6F58"/>
</g>
<defs>
<clipPath id="clip0_8_1559">
<rect width="150" height="150" fill="white"/>
</clipPath>
</defs>
</svg>
