<svg width="150" height="150" viewBox="0 0 150 150" fill="none" xmlns="http://www.w3.org/2000/svg">
<path fill-rule="evenodd" clip-rule="evenodd" d="M110.329 31.2089H105.609V22.253C105.609 17.2765 101.673 13.2354 96.8293 13.2354H62.047C57.2029 13.2354 53.2764 17.2765 53.2764 22.253V31.2089H48.4852C15.997 31.2089 8.83228 135.229 8.83228 135.229C8.83228 140.347 13.3676 144.529 18.9529 144.529H139.871C145.465 144.529 150 140.347 150 135.229C150 135.229 142.209 31.2089 110.329 31.2089ZM61.394 101.621V83.2412H97.0587V101.621H61.394ZM97.4117 110.294V127.941H61.6587V110.294H97.4117ZM97.3323 56.6206V75.1853H61.394V56.6206H97.3323ZM129.635 75.1853H105.326V56.6206H124.076C126.291 62.2589 128.126 68.6736 129.635 75.1853ZM53.2146 75.1853H28.9852C30.4411 68.753 32.2235 62.1883 34.4117 56.6206H53.2146V75.1853ZM53.1264 83.2412V101.621H24.2646C25.0235 96.1853 25.994 89.6206 27.3176 83.2412H53.1264ZM105.697 82.9677H131.471C132.821 89.4177 133.862 96.1059 134.638 101.612H105.697V82.9677ZM61.5617 23.6912C61.5617 22.1912 62.8676 20.9648 64.4735 20.9648H94.4117C96.0176 20.9648 97.3234 22.1912 97.3234 23.6912V31.2177H61.5617V23.6912ZM22.2087 121.112C22.2087 121.112 22.5264 117.141 23.3823 110.294H53.1264V127.941H29.6911C25.5529 127.941 22.2087 124.862 22.2087 121.112ZM129.079 127.941H105.706V110.294H135.371C136.253 117.071 136.615 121.174 136.615 121.174C136.606 124.897 133.218 127.941 129.079 127.941Z" fill="#FB6F58"/>
</svg>
