<svg width="150" height="150" viewBox="0 0 150 150" fill="none" xmlns="http://www.w3.org/2000/svg">
<path d="M110.346 44.2921C109.515 43.0095 108.508 42.1352 107.57 41.5437C107.565 39.9516 107.46 37.7 107.081 35.1033C107.337 32.0049 108.231 14.9443 97.7928 7.2522C91.3545 2.50753 84.1853 0 77.0608 0C71.2703 0 65.7556 1.64561 61.5318 4.6335C57.728 7.32494 55.6329 10.2524 54.5239 12.3132C51.2437 12.4292 44.4479 13.7667 41.4421 22.4319C38.5983 30.6283 40.8945 35.6921 42.5833 38.039C42.4729 39.3964 42.4331 40.5898 42.4303 41.543C41.4922 42.1345 40.4848 43.0088 39.6538 44.2914C37.7735 47.1935 37.4537 51.0852 38.7026 55.8607C41.0379 64.7901 46.4874 66.7555 49.395 67.1501C51.1861 70.7309 55.1223 78.049 59.0614 81.7259C60.6349 83.1944 62.6806 84.4338 65.1415 85.411C68.2824 86.6572 71.5997 87.2892 75 87.2892C78.4003 87.2892 81.7176 86.6572 84.8585 85.411C87.3194 84.4338 89.3651 83.1944 90.9386 81.7259C94.8777 78.049 98.8139 70.7309 100.605 67.1501C103.512 66.7555 108.961 64.7894 111.297 55.86C112.546 51.0859 112.227 47.1935 110.346 44.2921ZM104.658 54.1245C103.235 59.5678 100.691 60.3803 99.3005 60.3803C99.2017 60.3803 99.1276 60.3748 99.0836 60.3714C97.4957 59.9699 96.0271 60.8044 95.3326 62.2984C93.9739 65.219 89.6931 73.5019 86.2564 76.7101C85.3115 77.5919 83.9891 78.3743 82.327 79.0337C77.6633 80.8845 72.336 80.8845 67.673 79.0337C66.0109 78.3743 64.6885 77.5919 63.7436 76.7101C60.3069 73.5019 56.0261 65.219 54.6674 62.2984C54.0895 61.0563 52.9785 60.2719 51.7069 60.2719C51.4489 60.2719 51.184 60.3041 50.9157 60.3721C50.8718 60.3762 50.7976 60.381 50.6995 60.381C49.3099 60.381 46.766 59.5678 45.342 54.1259C44.6414 51.4475 44.6476 49.3112 45.3585 48.1117C45.7723 47.4145 46.3597 47.1798 46.5519 47.1194C48.3931 46.9197 49.502 45.3077 49.3483 43.4501C49.3449 43.4048 49.2248 41.8099 49.3771 39.3827C51.7385 38.3678 55.5114 36.366 58.6922 32.9307C60.311 31.1814 61.4955 29.0383 62.3389 27.0722C64.6384 28.9498 67.894 31.156 72.2015 33.0624C79.5793 36.3276 94.3239 37.8805 100.548 38.411C100.805 41.3735 100.655 43.3952 100.651 43.4432C100.489 45.3063 101.6 46.9197 103.447 47.1194C103.64 47.1798 104.227 47.4152 104.641 48.1117C105.352 49.3106 105.359 51.4468 104.658 54.1245ZM126.662 99.951L96.6626 87.9521C95.7993 87.6076 94.8337 87.6275 93.9842 88.007C93.136 88.3879 92.4779 89.0968 92.1622 89.971L84.6211 110.82L83.1278 106.527L85.5036 100.72C85.9359 99.6615 85.8138 98.4571 85.1763 97.5073C84.5388 96.5583 83.471 95.9887 82.3277 95.9887H67.673C66.5297 95.9887 65.4612 96.5583 64.8244 97.5073C64.1869 98.4571 64.0647 99.6615 64.4971 100.72L66.8728 106.527L65.3796 110.82L57.8385 89.971C57.5228 89.0968 56.8647 88.3872 56.0165 88.007C55.1669 87.6268 54.2007 87.6069 53.3381 87.9521L23.3384 99.951C14.1263 103.635 8.17383 112.428 8.17383 122.351V146.569C8.17383 148.464 9.71032 150 11.605 150H138.395C140.29 150 141.826 148.464 141.826 146.569V122.351C141.826 112.428 135.874 103.636 126.662 99.951ZM125.619 132.251C125.619 134.146 124.083 135.682 122.188 135.682H99.1509C97.2562 135.682 95.7197 134.146 95.7197 132.251V121.553C95.7197 119.657 97.2562 118.121 99.1509 118.121H122.188C124.083 118.121 125.619 119.657 125.619 121.553V132.251Z" fill="#FB6F58"/>
</svg>
