<svg width="150" height="150" viewBox="0 0 150 150" fill="none" xmlns="http://www.w3.org/2000/svg">
<g clip-path="url(#clip0_8_1507)">
<path d="M36.0778 28.9102C42.9037 28.9102 48.4373 23.3766 48.4373 16.5507C48.4373 9.7247 42.9037 4.19116 36.0778 4.19116C29.2518 4.19116 23.7183 9.7247 23.7183 16.5507C23.7183 23.3766 29.2518 28.9102 36.0778 28.9102Z" fill="#FB6F58"/>
<path d="M85.9751 28.3529C83.8748 25.8858 80.0993 25.5248 77.5689 27.6785C74.876 29.9712 63.519 39.6401 61.862 41.0511L40.058 34.8052L49.1984 35.0229C47.7016 33.5569 45.6564 32.6478 43.3958 32.6379L31.5877 32.5895C30.0924 32.5834 28.6129 32.8968 27.2485 33.5086L3.52504 44.148C0.748274 45.3932 -0.645674 48.5285 0.29007 51.4239L8.76069 77.6335C9.77349 80.7674 13.1347 82.4872 16.2692 81.4741C19.4031 80.461 21.1228 77.0998 20.1097 73.9656L13.2833 52.8442L23.4525 48.2851C23.7197 84.3469 23.7373 80.7001 23.6054 81.5248L19.5203 107.088L7.80415 135.96C6.31821 139.622 8.08218 143.796 11.7446 145.282C15.4076 146.768 19.5803 145.003 21.0663 141.341L33.0889 111.713C33.2925 111.211 33.4387 110.687 33.5242 110.152L37.3864 85.9861L43.6695 110.432L44.261 138.8C44.343 142.742 47.6011 145.887 51.565 145.806C55.5163 145.723 58.6528 142.454 58.5702 138.502L57.9614 109.305C57.95 108.754 57.875 108.206 57.7375 107.673L51.5342 83.5369L51.6508 54.7242L37.6284 46.5738L61.2804 53.6994C61.2822 53.7 61.2839 53.7 61.2857 53.7006C63.2457 54.2596 65.314 53.7627 66.7888 52.507L85.2998 36.7596C87.8067 34.6251 88.1106 30.861 85.9751 28.3529Z" fill="#FB6F58"/>
<path d="M149.907 73.5602C149.699 73.1192 149.163 72.845 148.569 73.1257C147.683 73.5446 146.771 73.8812 145.89 74.1385C144.236 74.6386 141.947 75.0435 139.776 74.8779C137.669 74.7555 135.905 74.115 134.347 73.2136C134.122 71.9623 133.609 70.7676 132.83 69.7316L119.649 52.215C119.649 52.215 119.93 50.2571 120.236 48.0472C117.361 48.4884 113.716 48.5886 112.449 45.9827C111.146 43.3008 113.754 40.5191 114.611 39.605C115.31 38.8588 116.258 37.9846 117.097 37.3304L117.042 37.2973C114.981 36.046 112.394 36.0478 110.334 37.3023L107.304 36.5947C106.752 36.4661 106.172 36.5807 105.711 36.9103C105.251 37.2396 104.954 37.7511 104.898 38.3148L104.647 40.8208C104.441 42.8658 105.6 44.8035 107.499 45.5904C108.317 45.929 108.956 46.5935 109.268 47.4217C109.58 48.2496 109.536 49.1696 109.146 49.9638C107.929 52.442 106.247 56.0092 105.086 59.0456L92.1453 51.4729C90.8779 50.7311 89.2492 51.1574 88.5077 52.4248C87.7659 53.6921 88.1922 55.3208 89.4596 56.0623L103.797 64.4526L103.775 64.4845C104.825 65.3939 111.779 70.7901 118.146 75.6361C118.779 74.1405 119.724 72.7032 120.974 71.4364C121.528 70.8748 122.432 70.8689 122.993 71.4229C123.555 71.9769 123.561 72.8811 123.007 73.4424C121.663 74.8041 120.741 76.5824 120.23 78.4193C119.444 81.2512 119.207 85.4937 119.972 88.6243L116.952 96.7917C103.735 97.1618 93.1314 107.985 93.1314 121.292C93.1314 134.832 104.108 145.809 117.649 145.809C131.189 145.809 142.166 134.832 142.166 121.292C142.166 109.395 133.693 99.4812 122.453 97.2476L125.015 90.3171C127.638 88.5195 130.509 86.089 132.129 83.6817C132.927 82.4963 134.151 79.6967 134.29 78.2427C136.258 78.6804 138.116 78.7689 139.89 78.5532C141.889 78.3531 144.391 77.6579 146.812 76.4339C147.732 75.9733 148.685 75.4126 149.598 74.7546C149.97 74.4889 150.11 73.9879 149.907 73.5602Z" fill="#FB6F58"/>
<path d="M122.768 40.9678C121.952 39.2896 120.335 38.3926 119.471 38.8124C118.608 39.2319 113.946 43.1803 114.761 44.8593C115.577 46.5377 121.562 45.3119 122.426 44.8921C123.289 44.4725 123.584 42.6465 122.768 40.9678Z" fill="#FB6F58"/>
</g>
<defs>
<clipPath id="clip0_8_1507">
<rect width="150" height="150" fill="white"/>
</clipPath>
</defs>
</svg>
