<svg width="39" height="40" viewBox="0 0 39 40" fill="none" xmlns="http://www.w3.org/2000/svg">
<rect width="39" height="40" rx="10" fill="#363F3F"/>
<path d="M18.3879 9.78696C18.32 9.79411 18.0878 9.81911 17.8698 9.84055C16.6265 9.96202 15.2367 10.3979 14.1148 11.0196C11.3281 12.5666 9.51312 15.2426 9.15585 18.3402C9.09154 18.8975 9.08082 20.1015 9.13441 20.7911C9.2273 21.9379 9.37379 22.7597 9.74893 24.2352C10.1562 25.8215 10.267 26.3039 10.3492 26.7719C10.4349 27.2756 10.4921 27.8401 10.4921 28.1617C10.4921 28.7834 10.7707 29.1049 11.396 29.2014C11.9605 29.2907 12.8894 29.0477 13.654 28.6119C14.0041 28.4118 14.4221 28.0938 14.5829 27.908L14.7008 27.7651L15.1974 28.0938C16.4907 28.9548 17.484 29.2085 19.2989 29.1549C20.7566 29.1085 21.9499 28.8155 23.229 28.1831C24.2008 27.7079 24.9153 27.2078 25.6727 26.4718C26.8053 25.3678 27.6413 24.0423 28.1237 22.5846C28.5024 21.4377 28.6274 20.5517 28.5953 19.2369C28.5774 18.3973 28.5274 17.9507 28.3738 17.2862C27.6556 14.1529 25.4727 11.5912 22.5323 10.4336C21.4569 10.012 20.4244 9.8084 19.2096 9.78696C18.8273 9.77624 18.4558 9.77981 18.3879 9.78696ZM19.6955 14.6066C21.7177 14.9532 23.3362 16.5252 23.772 18.5545C23.8614 18.9797 23.8614 19.9872 23.772 20.4124C23.622 21.1019 23.304 21.82 22.911 22.3417C22.1321 23.3813 20.9996 24.0887 19.7455 24.3245C19.2775 24.4139 18.4772 24.4139 18.0663 24.3281C17.534 24.2138 16.9052 23.9565 16.405 23.6493L16.2621 23.5635L16.1192 23.6886C15.2403 24.446 14.9544 24.5818 14.7186 24.3353C14.4435 24.0459 14.1899 23.2563 14.0255 22.188C13.9326 21.5842 13.8933 20.173 13.9541 19.5835C14.1148 18.0722 14.6115 16.8932 15.4725 15.9893C15.8834 15.5605 16.2514 15.2854 16.7444 15.0389C17.1767 14.821 17.5661 14.6924 18.0127 14.6102C18.4022 14.5423 19.2989 14.5387 19.6955 14.6066Z" fill="#889090"/>
</svg>
