<svg width="39" height="40" viewBox="0 0 39 40" fill="none" xmlns="http://www.w3.org/2000/svg">
<rect width="39" height="40" rx="10" fill="#363F3F"/>
<path d="M19.5 11.8072C22.0843 11.8072 22.4367 11.8072 23.494 11.8072C24.4337 11.8072 24.9036 12.0482 25.256 12.1687C25.7259 12.4096 26.0783 12.5301 26.4307 12.8916C26.7831 13.253 27.0181 13.6145 27.1355 14.0964C27.253 14.4578 27.3705 14.9398 27.488 15.9036C27.488 16.988 27.488 17.2289 27.488 20C27.488 22.7711 27.488 23.0121 27.488 24.0964C27.488 25.0602 27.253 25.5422 27.1355 25.9036C26.9006 26.3855 26.7831 26.747 26.4307 27.1084C26.0783 27.4699 25.7259 27.7108 25.256 27.8313C24.9036 27.9518 24.4337 28.0723 23.494 28.1928C22.4367 28.1928 22.2018 28.1928 19.5 28.1928C16.7982 28.1928 16.5633 28.1928 15.506 28.1928C14.5663 28.1928 14.0964 27.9518 13.744 27.8313C13.2741 27.5904 12.9217 27.4699 12.5693 27.1084C12.2169 26.747 11.9819 26.3855 11.8645 25.9036C11.747 25.5422 11.6295 25.0602 11.512 24.0964C11.512 23.0121 11.512 22.7711 11.512 20C11.512 17.2289 11.512 16.988 11.512 15.9036C11.512 14.9398 11.747 14.4578 11.8645 14.0964C12.0994 13.6145 12.2169 13.253 12.5693 12.8916C12.9217 12.5301 13.2741 12.2892 13.744 12.1687C14.0964 12.0482 14.5663 11.9277 15.506 11.8072C16.5633 11.8072 16.9157 11.8072 19.5 11.8072ZM19.5 10C16.7982 10 16.5633 10 15.506 10C14.4488 10 13.744 10.241 13.1566 10.4819C12.5693 10.7229 11.9819 11.0843 11.3946 11.6867C10.8072 12.2892 10.5723 12.7711 10.2199 13.494C9.98494 14.0964 9.86747 14.8193 9.75 15.9036C9.75 16.988 9.75 17.3494 9.75 20C9.75 22.7711 9.75 23.0121 9.75 24.0964C9.75 25.1807 9.98494 25.9036 10.2199 26.506C10.4548 27.1084 10.8072 27.7108 11.3946 28.3133C11.9819 28.9157 12.4518 29.1566 13.1566 29.5181C13.744 29.759 14.4488 29.8795 15.506 30C16.5633 30 16.9157 30 19.5 30C22.0843 30 22.4367 30 23.494 30C24.5512 30 25.256 29.759 25.8434 29.5181C26.4307 29.2771 27.0181 28.9157 27.6054 28.3133C28.1928 27.7108 28.4277 27.2289 28.7801 26.506C29.0151 25.9036 29.1325 25.1807 29.25 24.0964C29.25 23.0121 29.25 22.6506 29.25 20C29.25 17.3494 29.25 16.988 29.25 15.9036C29.25 14.8193 29.0151 14.0964 28.7801 13.494C28.5452 12.8916 28.1928 12.2892 27.6054 11.6867C27.0181 11.0843 26.5482 10.8434 25.8434 10.4819C25.256 10.241 24.5512 10.1205 23.494 10C22.4367 10 22.2018 10 19.5 10Z" fill="#889090"/>
<path d="M19.5 14.8193C16.6807 14.8193 14.4488 17.1084 14.4488 20C14.4488 22.8916 16.6807 25.1807 19.5 25.1807C22.3193 25.1807 24.5512 22.8916 24.5512 20C24.5512 17.1084 22.3193 14.8193 19.5 14.8193ZM19.5 23.3735C17.738 23.3735 16.2108 21.9277 16.2108 20C16.2108 18.1928 17.6205 16.6265 19.5 16.6265C21.262 16.6265 22.7892 18.0723 22.7892 20C22.7892 21.8072 21.262 23.3735 19.5 23.3735Z" fill="#889090"/>
<path d="M24.6687 15.9036C25.3174 15.9036 25.8434 15.3642 25.8434 14.6988C25.8434 14.0334 25.3174 13.494 24.6687 13.494C24.0199 13.494 23.494 14.0334 23.494 14.6988C23.494 15.3642 24.0199 15.9036 24.6687 15.9036Z" fill="#889090"/>
</svg>
