<svg width="39" height="40" viewBox="0 0 39 40" fill="none" xmlns="http://www.w3.org/2000/svg">
<rect width="39" height="40" rx="10" fill="#363F3F"/>
<path d="M20.4579 27C13.1292 27 8.94907 21.7447 8.7749 13H12.4459C12.5665 19.4184 15.2729 22.1371 17.4165 22.6977V13H20.8732V18.5355C22.9901 18.2973 25.2141 15.7748 25.9644 13H29.421C29.1383 14.4391 28.5747 15.8017 27.7656 17.0025C26.9564 18.2033 25.919 19.2166 24.7184 19.979C26.0586 20.6756 27.2424 21.6615 28.1915 22.8717C29.1407 24.082 29.8338 25.489 30.2249 27H26.4199C26.0688 25.6876 25.3552 24.5128 24.3685 23.6228C23.3818 22.7328 22.1659 22.1673 20.8732 21.997V27H20.4579Z" fill="#889090"/>
</svg>
