<svg width="39" height="40" viewBox="0 0 39 40" fill="none" xmlns="http://www.w3.org/2000/svg">
<rect width="39" height="40" rx="10" fill="#363F3F"/>
<path fill-rule="evenodd" clip-rule="evenodd" d="M10.9808 27.0568C10.5984 26.9408 10.2494 26.7343 9.96339 26.4549C9.67736 26.1754 9.46267 25.8312 9.33743 25.4512C8.62175 23.4874 8.4097 15.2869 9.78804 13.6681C10.2468 13.1414 10.8944 12.8172 11.5905 12.7658C15.2881 12.3677 26.7124 12.4208 28.0245 12.8985C28.3936 13.0183 28.7307 13.2203 29.0107 13.4891C29.2907 13.758 29.5064 14.0868 29.6414 14.451C30.4234 16.4812 30.4499 23.8589 29.5354 25.8095C29.2928 26.3173 28.8867 26.7285 28.3824 26.9772C27.004 27.6672 12.8098 27.6539 10.9808 27.0568ZM16.852 23.2087L23.4786 19.7587L16.852 16.2821V23.2087Z" fill="#889090"/>
</svg>
