<svg width="39" height="40" viewBox="0 0 39 40" fill="none" xmlns="http://www.w3.org/2000/svg">
<rect width="39" height="40" rx="10" fill="#363F3F"/>
<path d="M25.5818 22.7928C26.0934 22.2681 26.1664 21.5185 25.7279 20.7689C25.3625 20.1692 24.7047 19.8694 23.9738 20.0193C23.6815 20.0942 23.3891 20.2442 23.0968 20.469C20.8311 22.0432 17.7614 21.9683 15.4957 20.3941C15.3496 20.3191 15.2034 20.2442 15.0572 20.1692C14.2533 19.7944 13.4493 19.9443 13.0108 20.6939C12.4992 21.4435 12.5723 22.2681 13.23 22.9428C13.3762 23.0927 13.5224 23.1676 13.5955 23.3176L13.6686 23.3925C14.6918 24.2171 15.9343 24.7418 17.5422 24.9667L16.5921 25.9412C15.7881 26.7658 14.9111 27.6653 14.1071 28.4899C13.8878 28.7148 13.5955 29.0896 13.5955 29.6143C13.5955 30.2889 13.9609 30.9636 14.6187 31.2634C14.838 31.4133 15.0572 31.4133 15.2765 31.4133C15.6419 31.4133 16.0804 31.2634 16.3728 30.8886C17.4691 29.7642 18.3461 28.8647 19.2232 27.9651C19.2963 27.8902 19.2963 27.8902 19.2963 27.8902C19.2963 27.8902 19.3694 27.8902 19.3694 27.9651C19.9541 28.6398 20.6118 29.2395 21.1965 29.9141C21.4889 30.214 21.7812 30.5138 22.0736 30.8137C22.439 31.1885 22.7314 31.3384 23.1699 31.3384C23.8277 31.4134 24.5585 30.9636 24.8509 30.2889C25.1432 29.6892 24.9971 28.9396 24.4854 28.4899C23.7546 27.7403 23.0237 26.9157 22.2197 26.1661L20.9773 24.8917C21.6351 24.8168 22.3659 24.6669 23.0237 24.367C24.12 23.9922 24.924 23.4675 25.5818 22.7928Z" fill="#889090"/>
<path d="M19.2963 20.6939C22.439 20.6939 24.9971 18.1452 24.9971 14.9219C24.9971 13.3477 24.4124 11.8485 23.3161 10.7241C22.2197 9.59969 20.8311 9 19.3694 9C16.2266 9 13.7417 11.6236 13.6686 14.772C13.6686 16.3462 14.2533 17.7704 15.3496 18.8948C16.3728 20.0942 17.7614 20.6939 19.2963 20.6939ZM17.6884 13.1978C18.1269 12.7481 18.7116 12.5232 19.2963 12.5232C20.6118 12.5232 21.562 13.5726 21.562 14.847C21.562 16.1963 20.5387 17.1707 19.2963 17.1707C17.9807 17.1707 17.0306 16.1213 17.0306 14.847C17.0306 14.2473 17.2498 13.6476 17.6884 13.1978Z" fill="#889090"/>
<path d="M25.5818 22.7928C26.0934 22.2681 26.1664 21.5185 25.7279 20.7689C25.3625 20.1692 24.7047 19.8694 23.9738 20.0193C23.6815 20.0942 23.3891 20.2442 23.0968 20.469C20.8311 22.0432 17.7614 21.9683 15.4957 20.3941C15.3496 20.3191 15.2034 20.2442 15.0572 20.1692C14.2533 19.7944 13.4493 19.9443 13.0108 20.6939C12.4992 21.4435 12.5723 22.2681 13.23 22.9428C13.3762 23.0927 13.5224 23.1676 13.5955 23.3176L13.6686 23.3925C14.6918 24.2171 15.9343 24.7418 17.5422 24.9667L16.5921 25.9412C15.7881 26.7658 14.9111 27.6653 14.1071 28.4899C13.8878 28.7148 13.5955 29.0896 13.5955 29.6143C13.5955 30.2889 13.9609 30.9636 14.6187 31.2634C14.838 31.4133 15.0572 31.4133 15.2765 31.4133C15.6419 31.4133 16.0804 31.2634 16.3728 30.8886C17.4691 29.7642 18.3461 28.8647 19.2232 27.9651C19.2963 27.8902 19.2963 27.8902 19.2963 27.8902C19.2963 27.8902 19.3694 27.8902 19.3694 27.9651C19.9541 28.6398 20.6118 29.2395 21.1965 29.9141C21.4889 30.214 21.7812 30.5138 22.0736 30.8137C22.439 31.1885 22.7314 31.3384 23.1699 31.3384C23.8277 31.4134 24.5585 30.9636 24.8509 30.2889C25.1432 29.6892 24.9971 28.9396 24.4854 28.4899C23.7546 27.7403 23.0237 26.9157 22.2197 26.1661L20.9773 24.8917C21.6351 24.8168 22.3659 24.6669 23.0237 24.367C24.12 23.9922 24.924 23.4675 25.5818 22.7928Z" fill="#889090"/>
</svg>
