<svg width="150" height="150" viewBox="0 0 150 150" fill="none" xmlns="http://www.w3.org/2000/svg">
<path d="M75 8.0625L7.32422 62.1973V74.209L75 20.0625L142.676 74.209V62.1973L75 8.0625ZM75 26.8125L21.3867 69.6973V142.676H48.9258C48.9551 133.213 49.1602 119.385 51.9141 107.227C53.4375 100.576 55.6934 94.3652 59.3555 89.6484C63.0469 84.9023 68.3496 81.7383 75 81.7383C81.6504 81.7383 86.9531 84.9023 90.6445 89.6484C94.3066 94.3652 96.5625 100.576 98.0859 107.227C100.84 119.385 101.045 133.213 101.074 142.676H128.613V69.6973L75 26.8125ZM48.0176 58.0664C49.1856 58.096 50.4045 58.3177 51.5625 58.7109C52.854 59.1435 54.0238 59.7732 54.9401 60.529C55.8564 61.2848 56.4826 62.1366 56.748 62.9883H93.252C93.5174 62.1366 94.1436 61.2848 95.0599 60.529C95.9762 59.7732 97.146 59.1435 98.4375 58.7109C99.5955 58.3177 100.814 58.096 101.982 58.0664C103.236 58.0431 104.383 58.2431 105.301 58.6453C106.219 59.0476 106.874 59.6371 107.197 60.3516C107.618 61.2681 107.468 62.3416 106.773 63.3888C106.079 64.436 104.882 65.392 103.389 66.0938C104.682 66.8138 105.684 67.7248 106.247 68.6943C106.811 69.6638 106.908 70.6412 106.523 71.4844C106.288 72.007 105.875 72.465 105.307 72.832C104.739 73.1991 104.028 73.4679 103.214 73.623C102.4 73.7782 101.499 73.8167 100.564 73.7362C99.6288 73.6558 98.6771 73.458 97.7637 73.1543C96.3136 72.667 95.0218 71.9328 94.0704 71.055C93.1191 70.1772 92.5561 69.2002 92.4609 68.2617H57.5391C57.4439 69.2002 56.8809 70.1772 55.9296 71.055C54.9782 71.9328 53.6864 72.667 52.2363 73.1543C51.3229 73.458 50.3712 73.6558 49.4359 73.7362C48.5007 73.8167 47.6002 73.7782 46.7863 73.623C45.9724 73.4679 45.261 73.1991 44.693 72.832C44.125 72.465 43.7116 72.007 43.4766 71.4844C43.0921 70.6412 43.1887 69.6638 43.7525 68.6943C44.3163 67.7248 45.3178 66.8138 46.6113 66.0938C45.1175 65.392 43.9212 64.436 43.2267 63.3888C42.5321 62.3416 42.3823 61.2681 42.8027 60.3516C43.1262 59.6371 43.7815 59.0476 44.6994 58.6453C45.6173 58.2431 46.7638 58.0431 48.0176 58.0664Z" fill="#FB6F58"/>
</svg>
