<svg width="150" height="150" viewBox="0 0 150 150" fill="none" xmlns="http://www.w3.org/2000/svg">
<g clip-path="url(#clip0_8_1531)">
<path d="M136.524 49.1385H110.622C107.899 45.3976 104.602 42.1008 100.862 39.3776V25.2624C100.862 23.9728 99.8162 22.928 98.5271 22.928C97.2375 22.928 96.1928 23.973 96.1928 25.2624V36.3876C92.3581 34.2765 88.2492 32.7671 83.9827 31.8829C83.9118 31.8683 83.8409 31.8533 83.7697 31.839C83.4791 31.7801 83.1879 31.7238 82.8961 31.6711C82.7754 31.6494 82.6541 31.6286 82.5331 31.6078C82.265 31.5618 81.997 31.5152 81.728 31.4739C81.5572 31.4476 81.3847 31.4253 81.213 31.4007C80.843 31.3485 80.4721 31.3002 80.1 31.2574C79.8536 31.2287 79.6069 31.2006 79.3591 31.176C79.1821 31.1584 79.0043 31.144 78.8268 31.1288C78.5716 31.1068 78.3155 31.0866 78.0589 31.0687C77.8913 31.0573 77.724 31.0462 77.5561 31.0368C77.2728 31.0207 76.9887 31.0078 76.7039 30.997C76.5627 30.9917 76.4215 30.985 76.2803 30.9809C75.8549 30.9688 75.4283 30.9609 75 30.9609C74.5717 30.9609 74.1454 30.9688 73.7197 30.9809C73.5785 30.985 73.437 30.9917 73.2961 30.997C73.0113 31.0078 72.7271 31.0207 72.4438 31.0368C72.276 31.0465 72.1087 31.0573 71.9411 31.0687C71.6848 31.0866 71.4287 31.1068 71.1732 31.1288C70.9957 31.144 70.8182 31.1587 70.6409 31.176C70.3931 31.2006 70.1464 31.229 69.8994 31.2574C69.5276 31.3005 69.1573 31.3482 68.7876 31.4007C68.6153 31.425 68.4431 31.4473 68.2714 31.4739C68.0024 31.5149 67.7344 31.5615 67.4666 31.6078C67.3456 31.6286 67.2243 31.6488 67.1036 31.6711C66.8115 31.7241 66.5203 31.7804 66.23 31.839C66.1591 31.8533 66.0882 31.8683 66.017 31.8829C61.7505 32.7668 57.6419 34.2765 53.8069 36.3876V13.476C53.8069 8.61973 57.7576 4.66904 62.6139 4.66904H87.3849C92.2412 4.66904 96.1919 8.61973 96.1919 13.476V17.6227C96.1928 25.2624 97.2378 23.262 98.5271 23.262C99.8165 23.262 100.862 26.5515 100.862 25.2624L100.861 13.476C100.862 6.04541 94.8161 0 87.3855 0H62.6144C55.1839 0 49.1385 6.04541 49.1385 13.476V39.3776C45.3976 42.1008 42.1008 45.3979 39.3776 49.1385H13.476C6.04541 49.1385 0 55.1839 0 62.6145L0.000292969 77.9531C0.000292969 79.2428 1.04531 75.6188 2.33467 75.6188C3.62402 75.6188 4.66904 79.2425 4.66904 77.9531L4.66875 62.6145C4.66875 57.7582 8.61943 53.8075 13.4757 53.8075H36.3873C34.2762 57.6422 32.7668 61.7511 31.8826 66.0176C31.868 66.0885 31.853 66.1594 31.8387 66.2306C31.7798 66.5212 31.7238 66.8124 31.6708 67.1042C31.6491 67.2249 31.6289 67.3462 31.6075 67.4672C31.5615 67.7353 31.5149 68.0033 31.4736 68.2723C31.4476 68.4431 31.425 68.6156 31.4004 68.787C31.3482 69.157 31.2999 69.5282 31.2568 69.9C31.2281 70.1464 31.2 70.3931 31.1754 70.6409C31.1578 70.8179 31.1435 70.9957 31.1282 71.1732C31.1062 71.4287 31.0857 71.6845 31.0682 71.9411C31.0567 72.1087 31.0459 72.276 31.0362 72.4436C31.0201 72.7269 31.0072 73.011 30.9964 73.2958C30.9911 73.437 30.9844 73.5782 30.9803 73.7194C30.9683 74.1448 30.9604 74.5714 30.9604 74.9997C30.9604 75.428 30.9683 75.8543 30.9803 76.28C30.9844 76.4212 30.9911 76.5627 30.9964 76.7036C31.0072 76.9884 31.0201 77.2726 31.0362 77.5559C31.0459 77.7237 31.0567 77.891 31.0682 78.0586C31.086 78.3149 31.1062 78.571 31.1282 78.8265C31.1435 79.004 31.1581 79.1815 31.1754 79.3588C31.2 79.6066 31.2284 79.8533 31.2568 80.1C31.2999 80.4718 31.3477 80.8421 31.4001 81.2118C31.4244 81.3841 31.4467 81.5563 31.4733 81.728C31.5146 81.997 31.5609 82.265 31.6072 82.5328C31.628 82.6538 31.6482 82.7751 31.6705 82.8958C31.7235 83.1879 31.7798 83.4791 31.8384 83.7694C31.8527 83.8403 31.8677 83.9112 31.8823 83.9824C32.7662 88.2489 34.2759 92.3575 36.387 96.1925H13.476C8.61973 96.1931 4.66904 92.2424 4.66904 87.3861V77.9531C4.66904 76.6635 3.62373 75.6188 2.33467 75.6188C1.04502 75.6188 0.000292969 76.6638 0.000292969 77.9531V87.3861C0.000292969 94.8167 6.0457 100.862 13.4763 100.862H39.3779C42.1011 104.603 45.3981 107.9 49.1388 110.623V136.525C49.1388 143.955 55.1842 150.001 62.6147 150.001H87.3858C94.8164 150.001 100.862 143.955 100.862 136.525V110.623C104.603 107.9 107.9 104.603 110.623 100.862H136.524C143.955 100.862 150 94.8167 150 87.3861V62.615C150 55.1839 143.955 49.1385 136.524 49.1385ZM96.1925 136.524C96.1925 141.38 92.2418 145.331 87.3855 145.331H62.6144C57.7582 145.331 53.8075 141.38 53.8075 136.524V113.612C57.6422 115.724 61.7511 117.233 66.0176 118.117C66.0885 118.132 66.1594 118.147 66.2306 118.161C66.5212 118.22 66.8124 118.276 67.1042 118.329C67.2249 118.351 67.3462 118.371 67.4672 118.392C67.7353 118.438 68.0033 118.485 68.272 118.526C68.4431 118.552 68.6159 118.575 68.7882 118.599C69.1579 118.651 69.5285 118.7 69.9 118.743C70.1464 118.771 70.3934 118.799 70.6415 118.824C70.8187 118.841 70.9963 118.856 71.1738 118.871C71.429 118.893 71.6851 118.913 71.9417 118.931C72.1093 118.943 72.2766 118.954 72.4444 118.963C72.7277 118.979 73.0119 118.992 73.2967 119.003C73.4379 119.008 73.5791 119.015 73.7203 119.019C74.1457 119.031 74.5723 119.039 75.0006 119.039C75.4289 119.039 75.8552 119.031 76.2809 119.019C76.4221 119.015 76.5636 119.008 76.7045 119.003C76.9893 118.992 77.2734 118.979 77.5567 118.963C77.7246 118.954 77.8919 118.943 78.0595 118.931C78.3158 118.913 78.5719 118.893 78.8273 118.871C79.0049 118.856 79.1824 118.841 79.3597 118.824C79.6075 118.799 79.8539 118.771 80.1006 118.743C80.4727 118.7 80.8436 118.651 81.2136 118.599C81.3853 118.575 81.5575 118.553 81.7286 118.526C81.9978 118.485 82.2656 118.438 82.5334 118.392C82.6544 118.371 82.7757 118.351 82.8964 118.329C83.1885 118.276 83.4797 118.22 83.77 118.161C83.8409 118.147 83.9118 118.132 83.983 118.117C88.2492 117.233 92.3578 115.724 96.1928 113.612L96.1925 136.524ZM113.505 83.2184C113.322 84.0776 113.113 84.9275 112.874 85.7654L112.874 85.7669C109.154 98.8354 98.8353 109.153 85.7669 112.874L85.7654 112.874C84.9275 113.113 84.0776 113.321 83.2184 113.505C83.0631 113.538 82.9078 113.571 82.7517 113.602C82.5275 113.647 82.3028 113.691 82.0775 113.732C81.7928 113.783 81.5074 113.832 81.2209 113.877C81.0047 113.912 80.7873 113.944 80.5696 113.975C80.2822 114.016 79.9945 114.054 79.7059 114.088C79.5524 114.107 79.3986 114.125 79.2445 114.142C78.835 114.185 78.4242 114.226 78.0123 114.257C77.9505 114.261 77.8878 114.264 77.826 114.268C77.4439 114.295 77.0616 114.317 76.6781 114.333C76.5592 114.338 76.4405 114.342 76.3213 114.346C75.8818 114.361 75.4415 114.371 75 114.371C74.5585 114.371 74.1182 114.361 73.6787 114.346C73.5598 114.342 73.4408 114.338 73.3219 114.333C72.9384 114.316 72.5555 114.296 72.174 114.268C72.1122 114.264 72.0495 114.261 71.9877 114.257C71.5755 114.226 71.165 114.185 70.7555 114.142C70.6014 114.125 70.4476 114.107 70.294 114.088C70.0055 114.054 69.7175 114.016 69.4304 113.975C69.2127 113.944 68.9956 113.912 68.7791 113.877C68.4929 113.832 68.2072 113.783 67.9225 113.732C67.6969 113.691 67.4725 113.647 67.2483 113.602C67.0925 113.571 66.9372 113.538 66.7816 113.505C65.9224 113.321 65.0725 113.113 64.2346 112.874L64.2331 112.874C51.1644 109.154 40.8466 98.8354 37.1259 85.7669L37.1253 85.7654C36.8868 84.9278 36.6779 84.0776 36.4945 83.2184C36.4614 83.0631 36.4283 82.9078 36.397 82.7517C36.3521 82.5275 36.3085 82.3028 36.2675 82.0775C36.2159 81.7928 36.1676 81.5074 36.1222 81.2209C36.0876 81.0047 36.0557 80.7873 36.0246 80.5696C35.9839 80.2822 35.9455 79.9945 35.9109 79.706C35.8925 79.5524 35.8746 79.3986 35.8579 79.2445C35.814 78.835 35.7738 78.4242 35.7428 78.0123C35.7381 77.9505 35.7352 77.8878 35.7311 77.826C35.7041 77.4439 35.6827 77.0616 35.6669 76.6781C35.6619 76.5592 35.6572 76.4405 35.6531 76.3213C35.6385 75.8818 35.6285 75.4415 35.6285 75C35.6285 74.5585 35.6388 74.1182 35.6531 73.6787C35.6572 73.5598 35.6619 73.4408 35.6669 73.3219C35.683 72.9384 35.7038 72.5555 35.7311 72.174C35.7354 72.1122 35.7381 72.0495 35.7428 71.9877C35.7738 71.5755 35.814 71.165 35.8579 70.7555C35.8743 70.6014 35.8925 70.4476 35.9109 70.294C35.9452 70.0055 35.9839 69.7175 36.0246 69.4304C36.0554 69.2127 36.0876 68.9956 36.1222 68.7791C36.1676 68.4932 36.2159 68.2072 36.2675 67.9225C36.3085 67.6972 36.3521 67.4725 36.397 67.2483C36.428 67.0925 36.4611 66.9372 36.4945 66.7816C36.6779 65.9224 36.8868 65.0722 37.1253 64.2346L37.1259 64.2331C40.846 51.1644 51.1644 40.8466 64.2331 37.1259L64.2346 37.1256C65.0725 36.8871 65.9224 36.6782 66.7816 36.4948C66.9369 36.4617 67.0922 36.4286 67.2483 36.3973C67.4725 36.3524 67.6972 36.3088 67.9225 36.2678C68.2072 36.2162 68.4926 36.1679 68.7791 36.1225C68.9953 36.0879 69.2127 36.056 69.4304 36.0249C69.7178 35.9842 70.0055 35.9458 70.294 35.9112C70.4476 35.8928 70.6014 35.8749 70.7555 35.8582C71.165 35.8143 71.5758 35.7741 71.9877 35.7431C72.0495 35.7384 72.1122 35.7357 72.174 35.7313C72.5561 35.7044 72.9384 35.683 73.3219 35.6672C73.4408 35.6622 73.5595 35.6575 73.6787 35.6534C74.1182 35.6388 74.5582 35.6288 75 35.6288C75.4418 35.6288 75.8818 35.6388 76.3213 35.6534C76.4402 35.6575 76.5592 35.6622 76.6781 35.6672C77.0616 35.6833 77.4445 35.7041 77.826 35.7313C77.8878 35.7357 77.9505 35.7384 78.0123 35.7431C78.4245 35.7741 78.835 35.8143 79.2445 35.8582C79.3986 35.8746 79.5524 35.8928 79.7059 35.9112C79.9945 35.9455 80.2825 35.9842 80.5696 36.0249C80.7873 36.0557 81.0044 36.0879 81.2209 36.1225C81.5071 36.1679 81.7928 36.2162 82.0775 36.2678C82.3028 36.3088 82.5275 36.3524 82.7517 36.3973C82.9075 36.4283 83.0631 36.4617 83.2184 36.4948C84.0776 36.6782 84.9275 36.8871 85.7654 37.1256L85.7669 37.1259C98.8356 40.846 109.153 51.1644 112.874 64.2331L112.874 64.2346C113.113 65.0722 113.322 65.9224 113.505 66.7816C113.538 66.9369 113.571 67.0922 113.603 67.2483C113.648 67.4725 113.691 67.6972 113.732 67.9225C113.784 68.2072 113.832 68.4926 113.878 68.7791C113.912 68.9953 113.944 69.2127 113.975 69.4304C114.016 69.7178 114.054 70.0055 114.089 70.294C114.107 70.4476 114.125 70.6014 114.142 70.7555C114.186 71.165 114.226 71.5758 114.257 71.9877C114.262 72.0495 114.264 72.1122 114.269 72.174C114.296 72.5561 114.317 72.9384 114.333 73.3219C114.338 73.4408 114.342 73.5595 114.347 73.6787C114.361 74.1182 114.371 74.5582 114.371 75C114.371 75.4418 114.361 75.8818 114.347 76.3213C114.342 76.4402 114.338 76.5592 114.333 76.6781C114.317 77.0616 114.296 77.4445 114.269 77.826C114.264 77.8878 114.262 77.9505 114.257 78.0123C114.226 78.4245 114.186 78.835 114.142 79.2445C114.125 79.3986 114.107 79.5524 114.089 79.706C114.054 79.9945 114.016 80.2825 113.975 80.5696C113.944 80.7873 113.912 81.0044 113.878 81.2209C113.832 81.5068 113.784 81.7928 113.732 82.0775C113.691 82.3028 113.648 82.5275 113.603 82.7517C113.571 82.9078 113.538 83.0631 113.505 83.2184ZM145.331 87.3856C145.331 92.2418 141.38 96.1925 136.524 96.1925H113.612C115.724 92.3578 117.233 88.2489 118.117 83.9824C118.132 83.9115 118.147 83.8406 118.161 83.7694C118.22 83.4788 118.276 83.1876 118.329 82.8958C118.351 82.7751 118.371 82.6538 118.392 82.5328C118.438 82.2647 118.485 81.9967 118.526 81.728C118.552 81.5566 118.575 81.3841 118.599 81.2118C118.651 80.8421 118.7 80.4718 118.743 80.1C118.771 79.853 118.799 79.6066 118.824 79.3588C118.841 79.1815 118.856 79.004 118.871 78.8265C118.893 78.5713 118.913 78.3152 118.931 78.0586C118.943 77.891 118.954 77.7237 118.963 77.5559C118.979 77.2726 118.992 76.9884 119.003 76.7036C119.008 76.5624 119.015 76.4212 119.019 76.28C119.031 75.8546 119.039 75.428 119.039 74.9997C119.039 74.5714 119.031 74.1451 119.019 73.7194C119.015 73.5782 119.008 73.4367 119.003 73.2958C118.992 73.011 118.979 72.7269 118.963 72.4436C118.954 72.2757 118.943 72.1084 118.931 71.9411C118.913 71.6848 118.893 71.4287 118.871 71.1732C118.856 70.9957 118.841 70.8182 118.824 70.6409C118.799 70.3931 118.771 70.1467 118.743 69.9C118.7 69.5279 118.651 69.157 118.599 68.787C118.575 68.6153 118.553 68.4431 118.526 68.2723C118.485 68.003 118.438 67.7353 118.392 67.4675C118.371 67.3465 118.351 67.2252 118.329 67.1045C118.276 66.8124 118.22 66.5212 118.161 66.2309C118.147 66.16 118.132 66.0891 118.117 66.0179C117.233 61.7514 115.724 57.6428 113.612 53.8078H136.524C141.38 53.8078 145.331 57.7585 145.331 62.6147V87.3856Z" fill="#FB6F58"/>
<path d="M78.9074 72.9308L78.811 72.8341C76.4576 70.481 72.8002 69.2371 68.2346 69.2371C60.3807 69.2371 51.4551 72.857 48.3379 77.3069C46.7022 79.6421 46.9173 81.6683 47.3857 82.9571C48.5122 86.0558 50.7382 88.6131 54.0024 90.5576C55.4646 91.4289 56.8193 92.4871 58.0384 93.7134C59.2539 94.9216 60.3127 96.2763 61.1843 97.7397C63.1287 101.003 65.6857 103.229 68.7845 104.356C69.3962 104.578 70.0319 104.691 70.6753 104.691H70.6762C74.1979 104.691 77.6069 101.339 80.028 95.4944C83.0535 88.1921 83.9931 78.0167 78.9074 72.9308ZM71.7915 76.6044C70.092 80.7062 74.1695 75.0004 72.9947 75.0001C72.8957 75.0001 70.4796 100.004 70.3794 99.9674C68.3186 99.2186 66.5743 97.6647 65.195 95.3491C64.123 93.5502 62.8225 91.8856 61.3398 90.4114C59.8548 88.9175 63.1381 82.4327 61.3398 81.3616C59.0245 79.9823 52.162 77.3069 51.7738 81.3616C56.5509 81.4924 52.7576 81.45 53.3423 80.6151C55.3527 77.7451 63.618 99.9674 70.3794 99.9674C73.6331 99.9674 74.072 74.6977 75.5096 76.1353L75.6062 76.232C78.8585 79.4845 74.2923 70.5683 71.7915 76.6044Z" fill="#FB6F58"/>
<path d="M83.1635 45.9778C81.9937 45.5343 80.7709 45.3096 79.5287 45.3096C75.2929 45.3096 71.4377 47.9715 69.9357 51.933C69.0026 54.3942 68.8429 57.8378 69.5197 60.9189C70.3532 64.7173 72.2592 67.3575 74.886 68.3536C75.6383 68.639 76.4431 68.7837 77.2784 68.7837H77.279C82.1165 68.7837 87.4016 63.7358 89.1193 59.2057C91.1238 53.9173 88.4522 47.9829 83.1635 45.9778ZM84.7532 57.5501C83.656 60.444 79.9168 64.1146 77.2781 64.1144C77.0071 64.1144 76.7657 64.0728 76.5407 63.9878C75.4702 63.5817 74.5502 62.0604 74.0794 59.9176C73.6019 57.7411 73.6907 55.1976 74.3009 53.5877C75.1195 51.4288 77.2204 49.978 79.5284 49.978C80.2031 49.978 80.8693 50.1008 81.508 50.3431C84.3899 51.4358 85.8454 54.6688 84.7532 57.5501Z" fill="#FB6F58"/>
<path d="M66.2631 55.5728C65.4068 51.3338 61.6504 48.2573 57.3311 48.2573C56.7261 48.2573 56.1162 48.3183 55.5185 48.439C50.5899 49.4345 47.3898 54.2547 48.385 59.1839C49.2124 63.279 53.5495 69.2274 58.4629 69.228H58.4637C58.8636 69.228 59.263 69.1885 59.6508 69.11C64.8604 68.0579 67.2168 60.2937 66.2631 55.5728ZM58.7265 64.5338C58.6413 64.5514 58.5554 64.5593 58.4634 64.5593C56.5659 64.559 53.5325 61.0853 52.9615 58.2596C52.476 55.8537 54.0376 53.5015 56.4431 53.0157C56.7367 52.9565 57.0355 52.9264 57.3314 52.9264C59.4376 52.9264 61.2689 54.4281 61.687 56.4977C62.294 59.5032 60.5787 64.1597 58.7265 64.5338Z" fill="#FB6F58"/>
<path d="M105.764 68.5775C104.262 64.6157 100.406 61.9541 96.1706 61.9541C94.9287 61.9541 93.7055 62.1791 92.5357 62.6227C87.4732 64.5419 81.2429 71.1973 83.388 76.856C85.0067 81.1245 90.5063 82.6392 94.7239 82.6392C96.6124 82.6392 98.3708 82.3509 99.8084 81.8057C105.098 79.8009 107.769 73.8668 105.764 68.5775ZM98.1534 77.4404C97.2516 77.7826 96.0338 77.9704 94.7239 77.9704C91.3489 77.9704 88.3524 76.7798 87.7533 75.2007C86.8483 72.8127 90.8183 68.267 94.191 66.9882C94.8302 66.7459 95.4962 66.6231 96.1706 66.6231C98.4786 66.6231 100.58 68.0739 101.398 70.2328C102.491 73.115 101.035 76.3477 98.1534 77.4404Z" fill="#FB6F58"/>
<path d="M96.1688 85.478C95.4871 85.3403 94.7403 85.2703 93.9505 85.2703C89.1311 85.2703 83.5264 87.6609 82.6313 92.09C81.5506 97.439 87.8907 102.413 92.5583 103.356C93.1557 103.477 93.7653 103.537 94.3706 103.537C98.6901 103.537 102.446 100.461 103.303 96.2217C104.298 91.2937 101.097 86.4735 96.1688 85.478ZM98.7259 95.2983C98.3078 97.3672 96.4765 98.8696 94.3703 98.8696C94.0747 98.8696 93.7759 98.8394 93.4823 98.7802C90.4765 98.1732 86.8404 94.8325 87.2078 93.0152C87.5213 91.4633 90.8611 89.9396 93.9505 89.9396C94.4307 89.9396 94.866 89.9786 95.2442 90.0547C97.6498 90.5405 99.2116 92.8927 98.7259 95.2983Z" fill="#FB6F58"/>
<rect x="73.3958" y="49.7327" width="12.0321" height="15.2406" rx="4" fill="#FB6F58"/>
<path d="M52.54 8.01074C52.54 5.80161 54.3309 4.01074 56.54 4.01074H93.1018C95.2926 4.01074 97.0758 5.77313 97.1015 7.96381L97.402 33.5737C97.4318 36.1141 95.1166 38.0383 92.6245 37.5443L75.9731 34.2437C75.4641 34.1428 74.9403 34.142 74.431 34.2411L57.3044 37.5752C54.8349 38.056 52.54 36.1648 52.54 33.6489V8.01074Z" fill="#FB6F58"/>
<path d="M52.54 142.792C52.54 145.001 54.3309 146.792 56.54 146.792H93.8975C96.088 146.792 97.8711 145.03 97.8973 142.839L98.2033 117.213C98.2336 114.678 95.9277 112.754 93.439 113.239L76.3647 116.564C75.8642 116.661 75.3496 116.662 74.8487 116.566L57.2915 113.208C54.8257 112.737 52.54 114.627 52.54 117.137V142.792Z" fill="#FB6F58"/>
<path d="M7.60962 97.8608C5.40048 97.8608 3.60962 96.07 3.60962 93.8608L3.60962 56.5033C3.60962 54.3128 5.3715 52.5298 7.56185 52.5036L33.1884 52.1976C35.7236 52.1673 37.647 54.4732 37.1624 56.9619L33.8374 74.0362C33.7399 74.5367 33.7391 75.0513 33.8349 75.5522L37.1928 93.1094C37.6644 95.5752 35.7745 97.8608 33.2641 97.8608H7.60962Z" fill="#FB6F58"/>
<path d="M143.193 97.8608C145.402 97.8608 147.193 96.07 147.193 93.8608V56.5033C147.193 54.3128 145.431 52.5298 143.24 52.5036L117.614 52.1976C115.079 52.1673 113.155 54.4732 113.64 56.9619L116.965 74.0362C117.062 74.5367 117.063 75.0513 116.967 75.5522L113.609 93.1094C113.138 95.5752 115.028 97.8608 117.538 97.8608H143.193Z" fill="#FB6F58"/>
<rect x="50.9358" y="50.5347" width="12.0321" height="15.2406" rx="4" fill="#FB6F58"/>
<rect x="102.503" y="66.6641" width="12.2365" height="15.2406" rx="4" transform="rotate(91.0933 102.503 66.6641)" fill="#FB6F58"/>
<rect x="100.899" y="87.7239" width="12.2365" height="15.2406" rx="4" transform="rotate(91.0933 100.899 87.7239)" fill="#FB6F58"/>
</g>
<defs>
<clipPath id="clip0_8_1531">
<rect width="150" height="150" fill="white"/>
</clipPath>
</defs>
</svg>
