<svg width="41" height="37" viewBox="0 0 41 37" fill="none" xmlns="http://www.w3.org/2000/svg">
<g opacity="0.05">
<path d="M40.7896 26.8046C40.7896 32.4354 36.2252 36.9998 30.5945 36.9998C24.9638 36.9998 20.3994 32.4354 20.3994 26.8046C20.3994 21.1739 24.9638 16.6096 30.5945 16.6096C31.7517 16.6096 32.8594 16.8113 33.8964 17.1668C31.6021 4.00825 21.341 -4.47752 30.853 2.50644C41.4004 10.2509 40.8009 26.4931 40.7891 26.7907C40.7891 26.7954 40.7896 26.7995 40.7896 26.8046Z" fill="#170C04"/>
<path d="M20.3904 26.8046C20.3904 32.4354 15.826 36.9998 10.1953 36.9998C4.56449 36.9998 0.000118256 32.4354 0.000118256 26.8046C0.000118256 21.1739 4.56457 16.6096 10.1953 16.6096C11.3526 16.6096 12.4602 16.8113 13.4972 17.1668C11.2029 4.00825 0.941755 -4.47752 10.4538 2.50644C21.0012 10.2509 20.4018 26.4931 20.3899 26.7907C20.3899 26.7954 20.3904 26.7995 20.3904 26.8046Z" fill="#170C04"/>
</g>
</svg>
