<svg width="20" height="20" viewBox="0 0 20 20" fill="none" xmlns="http://www.w3.org/2000/svg">
<rect width="20" height="20" rx="10" fill="url(#paint0_radial_154_2484)"/>
<path d="M10 5.90361C11.3253 5.90361 11.506 5.90361 12.0482 5.90361C12.5301 5.90361 12.7711 6.0241 12.9518 6.08434C13.1928 6.20482 13.3735 6.26506 13.5542 6.44578C13.7349 6.62651 13.8554 6.80723 13.9157 7.04819C13.9759 7.22892 14.0361 7.46988 14.0964 7.95181C14.0964 8.49398 14.0964 8.61446 14.0964 10C14.0964 11.3855 14.0964 11.506 14.0964 12.0482C14.0964 12.5301 13.9759 12.7711 13.9157 12.9518C13.7952 13.1928 13.7349 13.3735 13.5542 13.5542C13.3735 13.7349 13.1928 13.8554 12.9518 13.9157C12.7711 13.9759 12.5301 14.0361 12.0482 14.0964C11.506 14.0964 11.3855 14.0964 10 14.0964C8.61446 14.0964 8.49398 14.0964 7.95181 14.0964C7.46988 14.0964 7.22892 13.9759 7.04819 13.9157C6.80723 13.7952 6.62651 13.7349 6.44578 13.5542C6.26506 13.3735 6.14458 13.1928 6.08434 12.9518C6.0241 12.7711 5.96386 12.5301 5.90361 12.0482C5.90361 11.506 5.90361 11.3855 5.90361 10C5.90361 8.61446 5.90361 8.49398 5.90361 7.95181C5.90361 7.46988 6.0241 7.22892 6.08434 7.04819C6.20482 6.80723 6.26506 6.62651 6.44578 6.44578C6.62651 6.26506 6.80723 6.14458 7.04819 6.08434C7.22892 6.0241 7.46988 5.96386 7.95181 5.90361C8.49398 5.90361 8.6747 5.90361 10 5.90361ZM10 5C8.61446 5 8.49398 5 7.95181 5C7.40964 5 7.04819 5.12048 6.74699 5.24096C6.44578 5.36145 6.14458 5.54217 5.84337 5.84337C5.54217 6.14458 5.42169 6.38554 5.24096 6.74699C5.12048 7.04819 5.06024 7.40964 5 7.95181C5 8.49398 5 8.6747 5 10C5 11.3855 5 11.506 5 12.0482C5 12.5904 5.12048 12.9518 5.24096 13.253C5.36145 13.5542 5.54217 13.8554 5.84337 14.1566C6.14458 14.4578 6.38554 14.5783 6.74699 14.759C7.04819 14.8795 7.40964 14.9398 7.95181 15C8.49398 15 8.6747 15 10 15C11.3253 15 11.506 15 12.0482 15C12.5904 15 12.9518 14.8795 13.253 14.759C13.5542 14.6386 13.8554 14.4578 14.1566 14.1566C14.4578 13.8554 14.5783 13.6145 14.759 13.253C14.8795 12.9518 14.9398 12.5904 15 12.0482C15 11.506 15 11.3253 15 10C15 8.6747 15 8.49398 15 7.95181C15 7.40964 14.8795 7.04819 14.759 6.74699C14.6386 6.44578 14.4578 6.14458 14.1566 5.84337C13.8554 5.54217 13.6145 5.42169 13.253 5.24096C12.9518 5.12048 12.5904 5.06024 12.0482 5C11.506 5 11.3855 5 10 5Z" fill="white"/>
<path d="M10 7.40964C8.55422 7.40964 7.40964 8.55422 7.40964 10C7.40964 11.4458 8.55422 12.5904 10 12.5904C11.4458 12.5904 12.5904 11.4458 12.5904 10C12.5904 8.55422 11.4458 7.40964 10 7.40964ZM10 11.6867C9.09639 11.6867 8.31325 10.9639 8.31325 10C8.31325 9.09639 9.03615 8.31325 10 8.31325C10.9036 8.31325 11.6867 9.03615 11.6867 10C11.6867 10.9036 10.9036 11.6867 10 11.6867Z" fill="white"/>
<path d="M12.6506 7.95181C12.9833 7.95181 13.253 7.6821 13.253 7.3494C13.253 7.0167 12.9833 6.74699 12.6506 6.74699C12.3179 6.74699 12.0482 7.0167 12.0482 7.3494C12.0482 7.6821 12.3179 7.95181 12.6506 7.95181Z" fill="white"/>
<defs>
<radialGradient id="paint0_radial_154_2484" cx="0" cy="0" r="1" gradientUnits="userSpaceOnUse" gradientTransform="translate(20.4023 0.40625) scale(46.1859)">
<stop stop-color="#F9ED32"/>
<stop offset="0.36" stop-color="#EE2A7B"/>
<stop offset="0.44" stop-color="#D22A8A"/>
<stop offset="0.6" stop-color="#8B2AB2"/>
<stop offset="0.83" stop-color="#1B2AF0"/>
<stop offset="0.88" stop-color="#002AFF"/>
</radialGradient>
</defs>
</svg>
